<svg id="Groupe_3793" data-name="Groupe 3793" xmlns="http://www.w3.org/2000/svg" xmlns:xlink="http://www.w3.org/1999/xlink" width="24.801" height="24.808" viewBox="0 0 24.801 24.808">
  <defs>
    <clipPath id="clip-path">
      <rect id="Rectangle_1453" data-name="Rectangle 1453" width="24.801" height="24.808" fill="none"/>
    </clipPath>
  </defs>
  <g id="Groupe_3792" data-name="Groupe 3792" clip-path="url(#clip-path)">
    <path id="Tracé_385" data-name="Tracé 385" d="M42.212,32.608A10.145,10.145,0,1,0,52.357,42.753,10.145,10.145,0,0,0,42.212,32.608m0,15.508a5.363,5.363,0,1,1,5.363-5.363,5.363,5.363,0,0,1-5.363,5.363" transform="translate(-29.847 -30.351)" fill="#dc073f"/>
    <path id="Tracé_386" data-name="Tracé 386" d="M42.212,37.339a5.384,5.384,0,0,1,3.277,1.108l3.365-3.365a10.146,10.146,0,0,0-13.283,0l3.365,3.365a5.384,5.384,0,0,1,3.277-1.108M36.8,42.752a5.384,5.384,0,0,1,1.108-3.277l-3.365-3.365a10.146,10.146,0,0,0,0,13.283l3.365-3.365A5.384,5.384,0,0,1,36.8,42.752m5.413,5.413a5.385,5.385,0,0,1-3.277-1.108l-3.365,3.365a10.146,10.146,0,0,0,13.283,0l-3.365-3.365a5.384,5.384,0,0,1-3.277,1.108m4.3-8.689a5.4,5.4,0,0,1,0,6.553l3.365,3.365a10.146,10.146,0,0,0,0-13.283Z" transform="translate(-29.847 -30.35)" fill="#fff"/>
    <path id="Tracé_387" data-name="Tracé 387" d="M12.374.761a6.568,6.568,0,0,1,4.659,1.93l5.08,5.08a6.589,6.589,0,0,1,0,9.318l-5.028,5.028a6.589,6.589,0,0,1-9.318,0l-5.08-5.08a6.589,6.589,0,0,1,0-9.318L7.715,2.691A6.568,6.568,0,0,1,12.374.761m0-.761a7.3,7.3,0,0,0-5.2,2.153L2.149,7.18a7.359,7.359,0,0,0,0,10.395l5.08,5.079a7.35,7.35,0,0,0,10.395,0l5.028-5.028a7.359,7.359,0,0,0,0-10.395l-5.079-5.08A7.3,7.3,0,0,0,12.374,0" transform="translate(0 0)" fill="#fff"/>
    <rect id="Rectangle_1449" data-name="Rectangle 1449" width="0.841" height="1.412" transform="translate(19.006 4.762) rotate(-45)" fill="#b10030"/>
    <rect id="Rectangle_1450" data-name="Rectangle 1450" width="0.841" height="1.412" transform="translate(4.13 19.638) rotate(-45)" fill="#b10030"/>
    <rect id="Rectangle_1451" data-name="Rectangle 1451" width="1.412" height="0.841" transform="translate(4.13 5.167) rotate(-45)" fill="#b10030"/>
    <rect id="Rectangle_1452" data-name="Rectangle 1452" width="1.412" height="0.841" transform="translate(19.006 20.042) rotate(-45)" fill="#b10030"/>
  </g>
</svg>
